<svg width="32" height="32.000001" xmlns="http://www.w3.org/2000/svg">

 <g>
  <title>background</title>
  <rect fill="#ffffff" id="canvas_background" height="34.000001" width="34" y="-1" x="-1" rx="5" ry="5"/>
 </g>
 <g>
  <title>Layer 1</title>
  <path clip-rule="nonzero" fill="#ea4335" fill-rule="evenodd" stroke-linecap="round" stroke-linejoin="round" stroke-miterlimit="4" stroke-dashoffset="0" id="path4980" d="m15.68584,2.995978c-2.66215,-0.038 -5.34608,0.7044 -7.68554,2.2675c-5.34738,3.5731 -7.43576,10.4587 -4.97461,16.4004c2.46112,5.9416 8.80371,9.3309 15.11133,8.0762c6.30761,-1.2547 10.87108,-6.8148 10.87109,-13.2461l-0.006,0l0,-1.5l-12,0l0,4l3,0l3,0l1.82031,0c-0.929,3.4816 -3.75791,6.229 -7.4375,6.9609c-4.52537,0.9001 -9.0292,-1.5068 -10.79492,-5.7695c-1.76574,-4.2629 -0.28372,-9.1495 3.55273,-11.7129c3.83644,-2.5634 8.91709,-2.0614 12.17969,1.2012l2.73047,-2.7285c-2.27376,-2.2738 -5.20216,-3.5867 -8.22852,-3.8848c-0.37829,-0.037 -0.75836,-0.059 -1.13867,-0.064l0.00014,-0.0004z"/>
  <path clip-rule="nonzero" fill="#34a853" fill-rule="evenodd" stroke-linecap="round" stroke-linejoin="round" stroke-miterlimit="4" stroke-dashoffset="0" id="path4982" d="m6.3046,19.402678l-3.20508,2.418c2.50808,5.842 8.78649,9.1633 15.03711,7.9199c2.88923,-0.5747 5.40463,-2.06 7.29101,-4.1113l-3.02148,-2.416c-1.32355,1.36 -3.04281,2.3486 -5.02149,2.7422c-4.52537,0.9001 -9.0292,-1.5069 -10.79492,-5.7696c-0.10718,-0.2587 -0.20172,-0.5205 -0.28515,-0.7832z"/>
  <path clip-rule="nonzero" fill="#fbbc05" fill-rule="evenodd" stroke-linecap="round" stroke-linejoin="round" stroke-miterlimit="4" stroke-dashoffset="0" id="path4984" d="m4.49554,8.671978c-2.62397,3.703 -3.2871,8.6047 -1.46985,12.9919c0.0416,0.1004 0.12808,0.299 0.12808,0.299c1.35395,-0.7817 2.35395,-1.4684 3.30607,-2.1162c-0.043,-0.1144 -0.0872,-0.2349 -0.11606,-0.3219c-0.96598,-2.908 -0.48068,-6.0303 1.18359,-8.4673c-2.01965,-1.563 -2.01965,-1.563 -3.03183,-2.3855z"/>
  <path clip-rule="nonzero" fill="#4788f4" fill-rule="evenodd" stroke-linecap="round" stroke-linejoin="round" stroke-miterlimit="4" stroke-dashoffset="0" id="path4986" d="m17.00186,14.994478l0,4l3,0l3,0l1.82031,0c-0.42943,1.6094 -1.27827,3.0497 -2.41601,4.2188l3.02148,2.416c2.23187,-2.427 3.58007,-5.6494 3.58008,-9.1348l-0.006,0l0,-1.5l-12,0l0.00014,0z"/>
  <path clip-rule="nonzero" fill="none" fill-rule="evenodd" stroke-linecap="round" stroke-linejoin="round" stroke-miterlimit="4" stroke-dashoffset="0" id="path4998" d="m15.68584,2.995978c-2.66215,-0.038 -5.34608,0.7044 -7.68554,2.2675c-5.34738,3.5731 -7.43576,10.4587 -4.97461,16.4004c2.46112,5.9416 8.80371,9.3309 15.11133,8.0762c6.30761,-1.2547 10.87108,-6.8148 10.87109,-13.2461l-0.006,0l0,-1.5l-12,0l0,4l3,0l3,0l1.82031,0c-0.929,3.4816 -3.75791,6.229 -7.4375,6.9609c-4.52537,0.9001 -9.0292,-1.5068 -10.79492,-5.7695c-1.76574,-4.2629 -0.28372,-9.1495 3.55273,-11.7129c3.83644,-2.5634 8.91709,-2.0614 12.17969,1.2012l2.73047,-2.7285c-2.27376,-2.2738 -5.20216,-3.5867 -8.22852,-3.8848c-0.37829,-0.037 -0.75836,-0.059 -1.13867,-0.064l0.00014,-0.0004z"/>
  <path fill="none" fill-rule="evenodd" stroke-width="1px" id="path5000" d="m4.49698,8.571878l3.02999,2.4675m14.88453,12.1212l2.98975,2.4347"/>
  <path fill="none" fill-rule="evenodd" stroke-width="1px" id="path5002" d="m6.3845,19.562778l-3.34546,2.5053"/>
 </g>
</svg>